# xmcd
#
# Track frame offsets: 
#        182
#        11346
#        24384
#        38107
#        52261
#        63606
#        77674
#        93382
#        107341
#        122112
#        132836
#        146305
#        159294
#        174738
#        190650
#        204770
#        215742
#        227431
#
# Disc length: 3220 seconds
#
# Revision: 0
# Processed by: cddbd v1.5.2PL0 Copyright (c) Steve Scherf et al.
# Submitted via: ExactAudioCopy v0.99pb5
#
DISCID=e70c9212
DTITLE=Various Artist - Folksongs - Old Time Country - USA - 1926-1944 [CD2)
DYEAR=1996
DGENRE=Country
TTITLE0=Monroe Brothers - Roll In My Sweet Baby's Arms
TTITLE1=Gus Cannon - Poor Boy
TTITLE2=Dock Boggs - Pretty Polly
TTITLE3=Leadbelly - Midnight Special
TTITLE4=Woody Guthrie - 900 Miles
TTITLE5=Frank Hutchison - Stackalee
TTITLE6=Dick Justice - Henry Lee
TTITLE7=Buell Kazee - The Wagoner's Land
TTITLE8=Burnett and Rutherford - Willie Moore
TTITLE9=Noach and Spark - Greenback Dollar
TTITLE10=Monroe Brothers - Little Red Shoes (Who's Gonna Shoe Your Pre
TTITLE10=tty Little Foot?)
TTITLE11=Jimmie Rodgers - Frankie And Johnnie
TTITLE12=Jimmie Rodgers - Gambling Barroom (St James Infirmary)
TTITLE13=Charlie Poole - White House Blues
TTITLE14=Dock Boggs - Down South Blues
TTITLE15=The Delmore Brothers - Careless Love
TTITLE16=The Delmore Brothers - Raining On The Mountain
TTITLE17=Burnett and Rutherford  - Hesitation Blues (Curley Headed Woman
TTITLE17=)
EXTD=
EXTT0=
EXTT1=
EXTT2=
EXTT3=
EXTT4=
EXTT5=
EXTT6=
EXTT7=
EXTT8=
EXTT9=
EXTT10=
EXTT11=
EXTT12=
EXTT13=
EXTT14=
EXTT15=
EXTT16=
EXTT17=
PLAYORDER=
